<svg version="1.2" xmlns="http://www.w3.org/2000/svg" viewBox="0 0 1531 427" width="1531" height="427">
	<title>Annual-Report-2019-1-pdf-svg</title>
	<defs>
		<clipPath clipPathUnits="userSpaceOnUse" id="cp1">
			<path d="m-3911-1469h5943v4209h-5943z"/>
		</clipPath>
		<radialGradient id="g1" cx="242.4" cy="238.2" r="252.3" gradientUnits="userSpaceOnUse">
			<stop offset="0" stop-color="#d3d800"/>
			<stop offset=".4" stop-color="#d3d800"/>
			<stop offset="1" stop-color="#ffffff"/>
		</radialGradient>
		<radialGradient id="g2" cx="214.9" cy="356.1" r="225.9" gradientUnits="userSpaceOnUse">
			<stop offset="0" stop-color="#0071bb"/>
			<stop offset=".4" stop-color="#0071bb"/>
			<stop offset="1" stop-color="#ffffff"/>
		</radialGradient>
	</defs>
	<style>
		.s0 { fill: #0071bb } 
		.s1 { fill: url(#g1) } 
		.s2 { fill: url(#g2) } 
		.s3 { fill: #009a3d } 
	</style>
	<g id="Clip-Path: Page 1" clip-path="url(#cp1)">
		<g id="Page 1">
			<path id="Path 3" fill-rule="evenodd" class="s0" d="m1530.7 354.9c0 31.7-18.7 41.3-51.9 41.3-13 0-33.4-2.8-45.8-6.8l5.8-19.9c9.1 3.5 26.5 6.5 39.3 6.5 19.4 0 28.2-4.2 28.2-19.6 0-11.3-5.8-16.6-29.2-18.6-29.5-2.3-45.6-9.9-45.6-35.3 0-31.8 19.9-41.1 52.6-41.1 12.9 0 28.9 2.6 42.5 6.8-2 6.6-4.2 13.1-6.3 19.9-10-3.5-24.1-6.5-36.7-6.5-18.1 0-27.7 3-27.7 18.9 0 10.8 7.1 15.1 29 16.8 31.9 2.8 45.8 12.9 45.8 37.6zm-120.6-43.9v75.1c-15.1 6.3-37.5 10.1-54.6 10.1-38.5 0-52.8-9.6-52.8-42.8 0-36.3 21.1-42.1 50.3-42.1 12 0 21.8 1.2 33.9 3.8 0-26.7-5.7-34.9-33.6-34.9-13.1 0-25.1 1.3-35.4 5.4l-6.4-18.2c11.3-3.1 26.8-7.9 44.7-7.9 37.5 0 53.9 13 53.9 51.5zm-23.2 21.7c-8-2-18.8-2.8-29.7-2.8-21.6 0-28.9 2.3-28.9 22.2 0 21.4 5.8 24.7 28.7 24.7 10.5 0 21.4-2 29.9-5zm-186.6-4.1c0 52.4-18.7 67.5-59.4 67.5-17.1 0-40-3.8-53.8-9.6v-169.6l23.9-9.8v63.6c6.5-4.6 17.8-9.3 33.9-9.3 37.5 0 55.4 15.3 55.4 67.2zm-25 0c0-36.5-8.5-45.8-34.2-45.8-23.6 0-30.1 8.5-30.1 17.1v71c8.5 3.1 19.6 4.5 29.9 4.5 25.9 0 34.4-7 34.4-46.8zm-111.5-0.5c0 52.4-18.8 68-59.3 68-40.3 0-59.4-15.6-59.4-68 0-52.1 19.4-66.7 59.4-66.7 40.2 0 59.3 14.6 59.3 66.7zm-25.1 0.5c0-40-8.3-47.1-34.2-47.1-26 0-34.3 7.1-34.3 47.1 0 38.3 8.3 47.3 34.3 47.3 25.9 0 34.2-9 34.2-47.3zm240.6-65.7c4.3 0 8.8 0.3 13.1 0.8v21.6c-4.3-0.8-9.6-1.3-14.8-1.3-17.1 0-32.5 5.8-32.5 15.7v92.9h-23.9v-127.7h23.9v9.3c4.6-6.5 15.9-11.3 34.2-11.3zm-357.6 0c4.3 0 8.8 0.3 13.1 0.8v21.6c-4.3-0.8-9.6-1.3-14.9-1.3-17.1 0-32.4 5.8-32.4 15.7v92.9h-23.9v-127.7h23.9v9.3c4.5-6.5 15.8-11.3 34.2-11.3zm-79.2 108.3l4.5 19.6c-8.1 2.8-20.9 5.3-31.4 5.3-29 0-41.6-8.5-41.6-46.3v-109.1l23.9-9.8v34h44.8v21.2h-44.8v62.2c0 18.6 5.1 26.7 21.4 26.7 8.8 0 16.6-1.5 23.2-3.8zm-89.9-43.3v5.8h-87c0.2 34.4 12.1 41.5 38 41.5 9 0 25.6-2.5 36.2-6l4.2 19.8c-12.8 4.1-31.4 7.1-43.2 7.1-37.8 0-60.6-15.6-60.6-68 0-50.6 20.8-66.7 58.3-66.7 37 0 54.1 13.1 54.1 66.5zm-24.7-13.6c-1.2-27.2-8.2-33-28.9-33-23.1 0-31.2 7.5-33.2 33zm-101.6 66.2l-12.7 17.3c-24.9-11.5-30.5-35.4-30.6-57.3v-123.5l23.6-9.6 0.1 127.8c-0.3 24.9 4.2 36.9 19.6 45.3zm-190.9-163.4h123.5v21.9h-98.1v49.8h69.7v21.7h-69.7v60.2h98.1v21.9h-123.5z"/>
			<path id="Path 3" class="s1" d="m239.4 0.6c3.6 0 5.1 3 4.9 4.8-16.2 96.3 12.5 140.4 44.5 178-17.6 57.3-51.1 96.8-95.9 119.2-52.6-73.7-50.3-163.5-18.9-249.8 16.2-23.6 36.3-40.5 61-51 1.7-0.9 3.1-1.2 4.4-1.2z"/>
			<path id="Path 4" class="s2" d="m192.9 302.6c25.1 35.2 62.8 66.8 116 92.6-67.8 46.8-165.8 42.3-281.4-24.6q-0.9-1-1.7-2.1c-13.6-17-22.3-34.1-25.4-50.5 0.3-3.3 2.2-5.5 5.8-4.6 70.9 18.7 135.1 14.7 186.7-10.8z"/>
			<path id="Path 6" class="s3" d="m192.9 302.6c44.8-22.4 78.3-61.9 95.9-119.2 37.1 40.4 65.6 67.8 66.9 115.2 0.9 35.7-18.3 74.5-46.8 96.6-53.2-25.8-90.9-57.4-116-92.6z"/>
		</g>
	</g>
</svg>