<svg width="152" height="83" viewBox="0 0 152 83" fill="none" xmlns="http://www.w3.org/2000/svg">
<path d="M88.5927 50.6258L85.2565 53.962C80.1943 59.0242 71.9869 59.0242 66.9247 53.962L43.7967 30.8339C38.7344 25.7717 38.7344 17.5643 43.7967 12.5021L56.2988 0L88.5927 32.2939C93.655 37.3562 93.655 45.5636 88.5927 50.6258Z" fill="white"/>
<path opacity="0.5" d="M66.4093 53.5493L54.627 41.7669L96.0868 0.307068L107.869 12.0894C113.197 17.4177 113.197 26.0583 107.869 31.3866L85.7065 53.5493C80.3782 58.8776 71.7376 58.8776 66.4093 53.5493Z" fill="white"/>
<path d="M4.15486 77.5331C2.57206 77.5331 1.29626 77.3421 0.327479 76.96V75.9571C1.46 76.3665 2.7085 76.5711 4.07299 76.5711C5.3556 76.5711 6.32439 76.3733 6.97934 75.9776C7.63429 75.5819 7.96177 74.9133 7.96177 73.9718C7.96177 73.3987 7.83214 72.9348 7.57289 72.58C7.31364 72.2252 6.90088 71.9285 6.33462 71.6897C5.76836 71.4509 5.00766 71.2292 4.05252 71.0245C3.0428 70.7925 2.24117 70.5231 1.64762 70.216C1.05406 69.909 0.631074 69.5304 0.378645 69.0801C0.126215 68.6298 0 68.0977 0 67.4837C0 66.4194 0.385467 65.5631 1.1564 64.915C1.92733 64.2669 3.11785 63.9428 4.72794 63.9428C5.46476 63.9428 6.15382 63.9974 6.79513 64.1066C7.43644 64.2157 7.92766 64.3249 8.26878 64.434V65.4369C7.28635 65.0958 6.18112 64.9252 4.95308 64.9252C3.7114 64.9252 2.75967 65.1265 2.09789 65.529C1.43612 65.9316 1.10523 66.5831 1.10523 67.4837C1.10523 67.9885 1.2178 68.4013 1.44294 68.7219C1.66808 69.0426 2.05355 69.3121 2.59934 69.5304C3.14514 69.7487 3.8956 69.9738 4.85074 70.2058C5.92869 70.4514 6.77126 70.7482 7.37845 71.0961C7.98565 71.4441 8.41887 71.8534 8.67812 72.3242C8.93737 72.7949 9.067 73.3441 9.067 73.9718C9.067 75.1452 8.65083 76.0322 7.8185 76.6325C6.98616 77.2329 5.76495 77.5331 4.15486 77.5331Z" fill="white"/>
<path d="M11.7285 77.3284V67.6269H12.7109L12.8133 68.814C13.3454 68.3774 13.9151 68.0363 14.5223 67.7907C15.1295 67.5451 15.7674 67.4223 16.436 67.4223C17.1865 67.4223 17.7664 67.5451 18.1757 67.7907C18.585 68.0363 18.8852 68.3774 19.0763 68.814C19.5402 68.4183 20.0792 68.0875 20.6932 67.8214C21.3072 67.5553 22.044 67.4223 22.9036 67.4223C23.9952 67.4223 24.8105 67.6986 25.3495 68.2512C25.8885 68.8038 26.1579 69.6668 26.1579 70.8403V77.3284H25.0527V70.9426C25.0527 69.9739 24.8446 69.3019 24.4285 68.9266C24.0123 68.5514 23.3607 68.3638 22.4738 68.3638C21.8598 68.3638 21.2799 68.4695 20.7341 68.681C20.1883 68.8925 19.7244 69.2029 19.3423 69.6123C19.3833 69.8033 19.4174 70.025 19.4447 70.2775C19.472 70.5299 19.4856 70.7653 19.4856 70.9836V77.3284H18.4008V71.004C18.4008 70.0762 18.2439 69.4042 17.9301 68.988C17.6163 68.5718 17.0091 68.3638 16.1085 68.3638C15.5081 68.3638 14.9214 68.5002 14.3483 68.7731C13.7752 69.046 13.2704 69.3803 12.8337 69.776V77.3284H11.7285Z" fill="white"/>
<path d="M31.7853 77.5331C31.1713 77.5331 30.6084 77.4376 30.0968 77.2466C29.5851 77.0555 29.1757 76.7519 28.8687 76.3358C28.5617 75.9196 28.4082 75.3909 28.4082 74.7496C28.4082 73.8899 28.6811 73.1906 29.2269 72.6517C29.7727 72.1127 30.7005 71.8432 32.0104 71.8432H35.6332V70.9222C35.6332 70.3082 35.5513 69.8135 35.3875 69.4383C35.2238 69.0631 34.927 68.7936 34.4972 68.6298C34.0674 68.4661 33.4363 68.3842 32.604 68.3842C32.0446 68.3842 31.5056 68.432 30.9871 68.5275C30.4686 68.623 29.9774 68.7526 29.5134 68.9164V67.9544C29.9364 67.7907 30.4311 67.6611 30.9973 67.5656C31.5636 67.47 32.1674 67.4223 32.8087 67.4223C34.1459 67.4223 35.1317 67.6918 35.7662 68.2307C36.4007 68.7697 36.7179 69.66 36.7179 70.9017V77.3284H35.7969L35.6946 76.1209C35.2443 76.5984 34.7121 76.9532 34.0981 77.1852C33.4841 77.4171 32.7132 77.5331 31.7853 77.5331ZM32.0718 76.5916C32.8496 76.5916 33.5318 76.4654 34.1186 76.213C34.7053 75.9605 35.2102 75.5819 35.6332 75.077V72.7438H32.0514C31.0962 72.7438 30.4345 72.9143 30.0661 73.2555C29.6976 73.5966 29.5134 74.0946 29.5134 74.7496C29.5134 75.4182 29.742 75.8923 30.1991 76.172C30.6562 76.4518 31.2804 76.5916 32.0718 76.5916Z" fill="white"/>
<path d="M39.6855 77.3284V67.6269H40.668L40.7908 68.9778C41.2956 68.623 41.8721 68.3092 42.5203 68.0363C43.1684 67.7634 43.8063 67.5587 44.4339 67.4223V68.3433C44.0382 68.4388 43.6118 68.5684 43.1547 68.7322C42.6976 68.8959 42.261 69.0767 41.8448 69.2746C41.4287 69.4724 41.0841 69.6737 40.8112 69.8783V77.3284H39.6855Z" fill="white"/>
<path d="M49.9194 77.5331C49.0598 77.5331 48.398 77.2943 47.9341 76.8167C47.4702 76.3391 47.2382 75.6705 47.2382 74.8109V68.5684H45.7236V67.6269H47.2382V65.089L48.3639 64.7205V67.6269H51.1679L51.1065 68.5684H48.3639V74.77C48.3639 75.3976 48.5106 75.8616 48.804 76.1617C49.0973 76.4619 49.5783 76.612 50.2469 76.612C50.4243 76.612 50.6119 76.595 50.8098 76.5609C51.0076 76.5267 51.2225 76.4688 51.4545 76.3869V77.2874C51.0042 77.4512 50.4925 77.5331 49.9194 77.5331Z" fill="white"/>
<path d="M53.3574 77.3284V64.1474H62.5472V65.8872H55.5884V69.8783H61.7899V71.5975H55.5884V75.6091H62.5472V77.3284H53.3574Z" fill="white"/>
<path d="M73.9067 82.2815C73.0471 82.2815 72.399 82.0632 71.9623 81.6266C71.5257 81.1899 71.3074 80.5077 71.3074 79.5798V76.7144C70.475 77.2602 69.4721 77.5331 68.2987 77.5331C66.9069 77.5331 65.8085 77.1545 65.0035 76.3972C64.1984 75.6399 63.7959 74.388 63.7959 72.6414C63.7959 70.8949 64.195 69.5884 64.9932 68.7219C65.7915 67.8555 66.8728 67.4223 68.2373 67.4223C68.9468 67.4223 69.5574 67.5178 70.0691 67.7088C70.5808 67.8998 71.055 68.1932 71.4916 68.5889L71.6349 67.6269H73.5383V79.4161C73.5383 79.8391 73.61 80.1324 73.7532 80.2962C73.8965 80.4599 74.1728 80.5418 74.5821 80.5418C74.7186 80.5418 74.8653 80.5281 75.0222 80.5009C75.1791 80.4736 75.319 80.4463 75.4418 80.419V82.0359C75.2098 82.1178 74.9779 82.1792 74.7459 82.2201C74.5105 82.261 74.2342 82.2815 73.9067 82.2815ZM68.8718 75.8548C69.4039 75.8548 69.8679 75.7763 70.2636 75.6194C70.6593 75.4625 71.0072 75.2544 71.3074 74.9952V70.1444C70.6388 69.4622 69.8133 69.1211 68.8309 69.1211C67.8348 69.1211 67.1218 69.4178 66.692 70.0114C66.2622 70.6049 66.0473 71.4748 66.0473 72.621C66.0473 73.8217 66.2793 74.6609 66.7432 75.1384C67.2037 75.616 67.9166 75.8548 68.8718 75.8548Z" fill="white"/>
<path d="M79.613 77.5331C78.4532 77.5331 77.5628 77.2125 76.942 76.5712C76.3212 75.9299 76.0107 74.9884 76.0107 73.7467V67.627H78.2417V73.7467C78.2417 74.4699 78.4191 75.002 78.7738 75.3431C79.1286 75.6843 79.6744 75.8548 80.4112 75.8548C80.957 75.8548 81.4619 75.7525 81.9258 75.5478C82.3897 75.3431 82.7922 75.0703 83.1334 74.7291V67.627H85.3438V77.3285H83.3176L83.2152 76.3256C82.7786 76.6667 82.2601 76.9532 81.6597 77.1852C81.0593 77.4137 80.3771 77.5331 79.613 77.5331Z" fill="white"/>
<path d="M88.9463 77.3285V69.3258H87.4727L87.6773 67.627H91.1772V77.3285H88.9463ZM88.7621 65.6007V63.7587H91.1977V65.6007H88.7621Z" fill="white"/>
<path d="M93.7783 81.7494V67.627H95.7022L95.825 68.5889C96.2617 68.1932 96.7393 67.8998 97.2578 67.7088C97.7763 67.5178 98.3903 67.4223 99.0998 67.4223C100.492 67.4223 101.576 67.8009 102.354 68.5582C103.132 69.3155 103.521 70.5674 103.521 72.314C103.521 74.0605 103.118 75.367 102.313 76.2334C101.508 77.0999 100.41 77.5331 99.0179 77.5331C97.8445 77.5331 96.8416 77.2602 96.0093 76.7144V81.7494H93.7783ZM98.4449 75.8548C100.328 75.8548 101.269 74.6677 101.269 72.2935C101.269 71.1473 101.058 70.332 100.635 69.8476C100.212 69.3632 99.5023 69.1211 98.5063 69.1211C97.5102 69.1211 96.6779 69.4622 96.0093 70.1444V74.9952C96.3231 75.2544 96.6744 75.4625 97.0633 75.6194C97.4522 75.7763 97.9127 75.8548 98.4449 75.8548Z" fill="white"/>
<path d="M105.689 77.3284V67.6269H107.736L107.839 68.6503C108.316 68.2683 108.841 67.9681 109.415 67.7497C109.988 67.5314 110.602 67.4223 111.257 67.4223C111.952 67.4223 112.495 67.5348 112.884 67.76C113.273 67.9851 113.569 68.2955 113.774 68.6912C114.224 68.3228 114.743 68.0192 115.33 67.7804C115.916 67.5417 116.619 67.4223 117.438 67.4223C118.557 67.4223 119.382 67.7088 119.914 68.2819C120.446 68.855 120.712 69.7351 120.712 70.9222V77.3284H118.522V71.1473C118.522 70.3969 118.366 69.8715 118.052 69.5713C117.738 69.2711 117.226 69.1211 116.517 69.1211C116.053 69.1211 115.613 69.2029 115.196 69.3667C114.78 69.5304 114.422 69.776 114.122 70.1035C114.163 70.2536 114.19 70.4105 114.204 70.5742C114.217 70.738 114.224 70.9153 114.224 71.1064V77.3284H112.157V71.1678C112.157 70.4583 112.034 69.9398 111.789 69.6123C111.543 69.2848 111.079 69.1211 110.397 69.1211C109.919 69.1211 109.466 69.2336 109.036 69.4588C108.606 69.6839 108.221 69.9534 107.879 70.2672V77.3284H105.689Z" fill="white"/>
<path d="M127.916 77.5331C126.224 77.5331 124.914 77.1169 123.986 76.2846C123.059 75.4523 122.595 74.1765 122.595 72.4572C122.595 70.9017 122.99 69.6737 123.782 68.7731C124.573 67.8725 125.774 67.4223 127.384 67.4223C128.858 67.4223 129.966 67.8077 130.71 68.5787C131.454 69.3496 131.825 70.3423 131.825 71.5567V73.3578H124.723C124.832 74.2993 125.174 74.9474 125.747 75.3022C126.32 75.6569 127.193 75.8343 128.366 75.8343C128.858 75.8343 129.363 75.7866 129.881 75.691C130.4 75.5955 130.85 75.4727 131.232 75.3226V76.96C130.795 77.151 130.294 77.2943 129.728 77.3898C129.161 77.4853 128.558 77.5331 127.916 77.5331ZM124.723 71.9046H129.861V71.2292C129.861 70.5606 129.676 70.0387 129.308 69.6634C128.94 69.2882 128.319 69.1006 127.445 69.1006C126.408 69.1006 125.696 69.3257 125.307 69.776C124.918 70.2263 124.723 70.9358 124.723 71.9046Z" fill="white"/>
<path d="M133.995 77.3284V67.6269H136.042L136.144 68.6503C136.581 68.3092 137.103 68.0192 137.71 67.7804C138.317 67.5417 138.989 67.4223 139.726 67.4223C140.981 67.4223 141.895 67.7156 142.469 68.3024C143.042 68.8891 143.328 69.8033 143.328 71.045V77.3284H141.118V71.1473C141.118 70.3969 140.964 69.8715 140.657 69.5713C140.35 69.2711 139.774 69.1211 138.928 69.1211C138.423 69.1211 137.928 69.2234 137.444 69.4281C136.959 69.6327 136.554 69.8988 136.226 70.2263V77.3284H133.995Z" fill="white"/>
<path d="M149.53 77.5331C148.493 77.5331 147.719 77.2567 147.207 76.7041C146.695 76.1515 146.44 75.3976 146.44 74.4425V69.3666H145.007V67.6269H146.44V65.396L148.65 64.7205V67.6269H151.229L151.086 69.3666H148.65V74.3197C148.65 74.8791 148.78 75.2714 149.039 75.4966C149.298 75.7217 149.721 75.8343 150.308 75.8343C150.676 75.8343 151.065 75.7661 151.475 75.6296V77.2056C150.942 77.4205 150.294 77.5331 149.53 77.5331Z" fill="white"/>
</svg>
